<svg
    width="250.2"
    height="73.13538461538461"
    viewBox="0 0 390 114"
    class="looka-1j8o68f"
  >
    <defs id="SvgjsDefs1191"></defs>
    <g
      id="SvgjsG1192"
      featurekey="rootContainer"
      transform="matrix(1,0,0,1,0,0)"
      fill="#ffffff"
    >
      <rect
        xmlns="http://www.w3.org/2000/svg"
        width="390"
        height="114"
        rx="10"
        ry="10"
      ></rect>
    </g>
    <g
      id="SvgjsG1193"
      featurekey="q4o0QG-0"
      transform="matrix(4.937923441907616,0,0,4.937923441907616,17.629795917893,-5.67720095608545)"
      fill="#111111"
    >
      <path
        d="M3.44 15 l-0.12 2.24 l0.66 0.28 l0.62 -0.12 l0.42 -0.92 l-0.1 -1.38 l-0.34 -0.98 l-0.58 -0.02 l-0.68 0 z M3.32 7.66 l0.2 4.38 l0.84 -0.12 l0.76 -0.62 l0.28 -1.34 l0.08 -1.58 l-0.94 -0.68 l-0.56 -0.08 z M4.94 20 l-4.14 0.04 l-0.32 -3.78 l0.1 -5.18 l0 -5.74 l3.78 -0.04 l1.54 0.32 l1.28 0.38 l0.24 0.44 l0.82 3.54 l-0.2 1.76 l-0.46 0.88 l-0.34 0.34 l-0.86 0.26 l0.92 0.4 l0.48 0.4 l0.5 1.92 l-0.4 3.08 l-0.86 0.7 z M12.86 5.199999999999999 l0 12.2 l1.5 0.28 l1.46 0.04 l-0.14 2.26 l-1.14 0 l-3.8 0.14 l-1.26 -0.04 l-0.26 -13.28 l0.12 -1.44 z M18.42 13.379999999999999 l2 -0.1 l-0.06 -2.78 l-0.5 -1.94 l-1.24 -0.1 z M18.96 5.199999999999999 l1.28 0 l2.62 0.18 l0.54 7.26 l0.2 7.24 l-0.6 0.04 l-2.26 0.1 l-0.24 0 l-0.18 -4.5 l-1.88 -0.12 l-0.5 4.6 l-1.96 0.06 l0.64 -7.48 l0.58 -4.28 l0.42 -3 z M27.320000000000004 15 l-0.12 2.24 l0.66 0.28 l0.62 -0.12 l0.42 -0.92 l-0.1 -1.38 l-0.34 -0.98 l-0.58 -0.02 l-0.68 0 z M27.200000000000003 7.66 l0.2 4.38 l0.84 -0.12 l0.76 -0.62 l0.28 -1.34 l0.08 -1.58 l-0.94 -0.68 l-0.56 -0.08 z M28.820000000000004 20 l-4.14 0.04 l-0.32 -3.78 l0.1 -5.18 l0 -5.74 l3.78 -0.04 l1.54 0.32 l1.28 0.38 l0.24 0.44 l0.82 3.54 l-0.2 1.76 l-0.46 0.88 l-0.34 0.34 l-0.86 0.26 l0.92 0.4 l0.48 0.4 l0.5 1.92 l-0.4 3.08 l-0.86 0.7 z M36.74 5.199999999999999 l0 12.2 l1.5 0.28 l1.46 0.04 l-0.14 2.26 l-1.14 0 l-3.8 0.14 l-1.26 -0.04 l-0.26 -13.28 l0.12 -1.44 z M42.300000000000004 13.379999999999999 l2 -0.1 l-0.06 -2.78 l-0.5 -1.94 l-1.24 -0.1 z M42.84 5.199999999999999 l1.28 0 l2.62 0.18 l0.54 7.26 l0.2 7.24 l-0.6 0.04 l-2.26 0.1 l-0.24 0 l-0.18 -4.5 l-1.88 -0.12 l-0.5 4.6 l-1.96 0.06 l0.64 -7.48 l0.58 -4.28 l0.42 -3 z M51.2 15 l-0.12 2.24 l0.66 0.28 l0.62 -0.12 l0.42 -0.92 l-0.1 -1.38 l-0.34 -0.98 l-0.58 -0.02 l-0.68 0 z M51.080000000000005 7.66 l0.2 4.38 l0.84 -0.12 l0.76 -0.62 l0.28 -1.34 l0.08 -1.58 l-0.94 -0.68 l-0.56 -0.08 z M52.7 20 l-4.14 0.04 l-0.32 -3.78 l0.1 -5.18 l0 -5.74 l3.78 -0.04 l1.54 0.32 l1.28 0.38 l0.24 0.44 l0.82 3.54 l-0.2 1.76 l-0.46 0.88 l-0.34 0.34 l-0.86 0.26 l0.92 0.4 l0.48 0.4 l0.5 1.92 l-0.4 3.08 l-0.86 0.7 z M60.620000000000005 5.199999999999999 l0 12.2 l1.5 0.28 l1.46 0.04 l-0.14 2.26 l-1.14 0 l-3.8 0.14 l-1.26 -0.04 l-0.26 -13.28 l0.12 -1.44 z M66.18 13.379999999999999 l2 -0.1 l-0.06 -2.78 l-0.5 -1.94 l-1.24 -0.1 z M66.72 5.199999999999999 l1.28 0 l2.62 0.18 l0.54 7.26 l0.2 7.24 l-0.6 0.04 l-2.26 0.1 l-0.24 0 l-0.18 -4.5 l-1.88 -0.12 l-0.5 4.6 l-1.96 0.06 l0.64 -7.48 l0.58 -4.28 l0.42 -3 z"
      ></path>
    </g>
  </svg>